<svg width="1440" height="1024" viewBox="0 0 1440 1024" fill="none" xmlns="http://www.w3.org/2000/svg">
<g clip-path="url(#clip0)">
<rect width="1440" height="1024" fill="white"/>
<path d="M1497.86 -0.623522L1449.55 263.143L1229.74 -4.86302L1497.86 -0.623522Z" fill="#E5E5E5"/>
<path d="M-5.20127 1025.22L4.99003 739.705L265.174 1055.73L-5.20127 1025.22Z" fill="#E5E5E5"/>
<path d="M1438.56 24.8819L1440 308L1172.35 -20.8415L1438.56 24.8819Z" fill="#E5E5E5"/>
<g filter="url(#filter0_i)">
<rect x="-95" y="593.456" width="106.633" height="457.957" transform="rotate(-34.5379 -95 593.456)" fill="#F2F2F2"/>
</g>
<rect x="-94.3046" y="593.584" width="105.633" height="456.957" transform="rotate(-34.5379 -94.3046 593.584)" stroke="#F2F2F2"/>
<g filter="url(#filter1_i)">
<rect x="-85" y="413.456" width="106.633" height="639.523" transform="rotate(-34.5379 -85 413.456)" fill="#F2F2F2"/>
</g>
<rect x="-84.3046" y="413.584" width="105.633" height="638.523" transform="rotate(-34.5379 -84.3046 413.584)" stroke="#F2F2F2"/>
<g filter="url(#filter2_i)">
<rect x="-95" y="209.456" width="106.633" height="827.465" transform="rotate(-34.5379 -95 209.456)" fill="#F2F2F2"/>
</g>
<rect x="-94.3046" y="209.584" width="105.633" height="826.465" transform="rotate(-34.5379 -94.3046 209.584)" stroke="#F2F2F2"/>
<g filter="url(#filter3_i)">
<rect x="-85" y="35.4559" width="106.633" height="989.696" transform="rotate(-34.5379 -85 35.4559)" fill="#F2F2F2"/>
</g>
<rect x="-84.3046" y="35.5843" width="105.633" height="988.696" transform="rotate(-34.5379 -84.3046 35.5843)" stroke="#F2F2F2"/>
<g filter="url(#filter4_i)">
<rect x="324" y="123.456" width="106.633" height="989.696" transform="rotate(-34.5379 324 123.456)" fill="#F2F2F2"/>
</g>
<rect x="324.695" y="123.584" width="105.633" height="988.696" transform="rotate(-34.5379 324.695 123.584)" stroke="#F2F2F2"/>
<g filter="url(#filter5_i)">
<rect x="236" y="-69.5439" width="106.633" height="989.696" transform="rotate(-34.5379 236 -69.5439)" fill="#F2F2F2"/>
</g>
<rect x="236.695" y="-69.4155" width="105.633" height="988.696" transform="rotate(-34.5379 236.695 -69.4155)" stroke="#F2F2F2"/>
<g filter="url(#filter6_i)">
<rect x="343" y="-104.544" width="106.633" height="989.696" transform="rotate(-34.5379 343 -104.544)" fill="#F2F2F2"/>
</g>
<rect x="343.695" y="-104.415" width="105.633" height="988.696" transform="rotate(-34.5379 343.695 -104.415)" stroke="#F2F2F2"/>
<g filter="url(#filter7_i)">
<rect x="450" y="-139.544" width="106.633" height="989.696" transform="rotate(-34.5379 450 -139.544)" fill="#F2F2F2"/>
</g>
<rect x="450.695" y="-139.415" width="105.633" height="988.696" transform="rotate(-34.5379 450.695 -139.415)" stroke="#F2F2F2"/>
<g filter="url(#filter8_i)">
<rect x="557" y="-174.544" width="106.633" height="1469.35" transform="rotate(-34.5379 557 -174.544)" fill="#F2F2F2"/>
</g>
<rect x="557.695" y="-174.415" width="105.633" height="1468.35" transform="rotate(-34.5379 557.695 -174.415)" stroke="#F2F2F2"/>
<g filter="url(#filter9_i)">
<rect x="664" y="-209.543" width="106.633" height="1352.75" transform="rotate(-34.5379 664 -209.543)" fill="#F2F2F2"/>
</g>
<rect x="664.695" y="-209.415" width="105.633" height="1351.75" transform="rotate(-34.5379 664.695 -209.415)" stroke="#F2F2F2"/>
<g filter="url(#filter10_i)">
<rect x="771" y="-244.543" width="106.633" height="1197.56" transform="rotate(-34.5379 771 -244.543)" fill="#F2F2F2"/>
</g>
<rect x="771.695" y="-244.415" width="105.633" height="1196.56" transform="rotate(-34.5379 771.695 -244.415)" stroke="#F2F2F2"/>
<g filter="url(#filter11_i)">
<rect x="878" y="-279.543" width="106.633" height="989.696" transform="rotate(-34.5379 878 -279.543)" fill="#F2F2F2"/>
</g>
<rect x="878.695" y="-279.415" width="105.633" height="988.696" transform="rotate(-34.5379 878.695 -279.415)" stroke="#F2F2F2"/>
<g filter="url(#filter12_i)">
<rect x="985" y="-314.543" width="106.633" height="989.696" transform="rotate(-34.5379 985 -314.543)" fill="#F2F2F2"/>
</g>
<rect x="985.695" y="-314.415" width="105.633" height="988.696" transform="rotate(-34.5379 985.695 -314.415)" stroke="#F2F2F2"/>
<g filter="url(#filter13_i)">
<rect x="1092" y="-349.543" width="106.633" height="989.696" transform="rotate(-34.5379 1092 -349.543)" fill="#F2F2F2"/>
</g>
<rect x="1092.7" y="-349.415" width="105.633" height="988.696" transform="rotate(-34.5379 1092.7 -349.415)" stroke="#F2F2F2"/>
<g filter="url(#filter14_i)">
<rect x="129" y="-34.544" width="106.633" height="989.696" transform="rotate(-34.5379 129 -34.544)" fill="#F2F2F2"/>
</g>
<rect x="129.695" y="-34.4156" width="105.633" height="988.696" transform="rotate(-34.5379 129.695 -34.4156)" stroke="#F2F2F2"/>
<g filter="url(#filter15_i)">
<rect x="31" y="12.4559" width="106.633" height="989.696" transform="rotate(-34.5379 31 12.4559)" fill="#F2F2F2"/>
</g>
<rect x="31.6954" y="12.5843" width="105.633" height="988.696" transform="rotate(-34.5379 31.6954 12.5843)" stroke="#F2F2F2"/>
<path d="M1530.29 -81.5257L1443.92 230.646L1176.52 47.8689L1262.89 -264.303L1530.29 -81.5257Z" fill="#E5E5E5"/>
<path d="M205 591L215.397 683.788L258.769 598.293L235.173 689.29L307.275 619.456L251.996 699.756L345.769 652.42L264.218 714.162L370.484 693.956L270.644 731.097L379 740L270.644 748.903L370.484 786.044L264.218 765.838L345.769 827.58L251.996 780.244L307.275 860.544L235.173 790.71L258.769 881.707L215.397 796.212L205 889L194.603 796.212L151.231 881.707L174.827 790.71L102.725 860.544L158.004 780.244L64.231 827.58L145.782 765.838L39.5162 786.044L139.356 748.903L31 740L139.356 731.097L39.5162 693.956L145.782 714.162L64.231 652.42L158.004 699.756L102.725 619.456L174.827 689.29L151.231 598.293L194.603 683.788L205 591Z" fill="#E5E5E5"/>
<path d="M205 591L215.397 683.788L258.769 598.293L235.173 689.29L307.275 619.456L251.996 699.756L345.769 652.42L264.218 714.162L370.484 693.956L270.644 731.097L379 740L270.644 748.903L370.484 786.044L264.218 765.838L345.769 827.58L251.996 780.244L307.275 860.544L235.173 790.71L258.769 881.707L215.397 796.212L205 889L194.603 796.212L151.231 881.707L174.827 790.71L102.725 860.544L158.004 780.244L64.231 827.58L145.782 765.838L39.5162 786.044L139.356 748.903L31 740L139.356 731.097L39.5162 693.956L145.782 714.162L64.231 652.42L158.004 699.756L102.725 619.456L174.827 689.29L151.231 598.293L194.603 683.788L205 591Z" fill="#E5E5E5"/>
<path d="M205 591L215.397 683.788L258.769 598.293L235.173 689.29L307.275 619.456L251.996 699.756L345.769 652.42L264.218 714.162L370.484 693.956L270.644 731.097L379 740L270.644 748.903L370.484 786.044L264.218 765.838L345.769 827.58L251.996 780.244L307.275 860.544L235.173 790.71L258.769 881.707L215.397 796.212L205 889L194.603 796.212L151.231 881.707L174.827 790.71L102.725 860.544L158.004 780.244L64.231 827.58L145.782 765.838L39.5162 786.044L139.356 748.903L31 740L139.356 731.097L39.5162 693.956L145.782 714.162L64.231 652.42L158.004 699.756L102.725 619.456L174.827 689.29L151.231 598.293L194.603 683.788L205 591Z" fill="#E5E5E5"/>
<path d="M205 591L215.397 683.788L258.769 598.293L235.173 689.29L307.275 619.456L251.996 699.756L345.769 652.42L264.218 714.162L370.484 693.956L270.644 731.097L379 740L270.644 748.903L370.484 786.044L264.218 765.838L345.769 827.58L251.996 780.244L307.275 860.544L235.173 790.71L258.769 881.707L215.397 796.212L205 889L194.603 796.212L151.231 881.707L174.827 790.71L102.725 860.544L158.004 780.244L64.231 827.58L145.782 765.838L39.5162 786.044L139.356 748.903L31 740L139.356 731.097L39.5162 693.956L145.782 714.162L64.231 652.42L158.004 699.756L102.725 619.456L174.827 689.29L151.231 598.293L194.603 683.788L205 591Z" fill="#E5E5E5"/>
<path d="M205 591L215.397 683.788L258.769 598.293L235.173 689.29L307.275 619.456L251.996 699.756L345.769 652.42L264.218 714.162L370.484 693.956L270.644 731.097L379 740L270.644 748.903L370.484 786.044L264.218 765.838L345.769 827.58L251.996 780.244L307.275 860.544L235.173 790.71L258.769 881.707L215.397 796.212L205 889L194.603 796.212L151.231 881.707L174.827 790.71L102.725 860.544L158.004 780.244L64.231 827.58L145.782 765.838L39.5162 786.044L139.356 748.903L31 740L139.356 731.097L39.5162 693.956L145.782 714.162L64.231 652.42L158.004 699.756L102.725 619.456L174.827 689.29L151.231 598.293L194.603 683.788L205 591Z" fill="#F7F7F7"/>
<path d="M546 442L556.397 534.788L599.769 449.293L576.173 540.29L648.275 470.456L592.996 550.756L686.769 503.42L605.218 565.162L711.484 544.956L611.644 582.097L720 591L611.644 599.903L711.484 637.044L605.218 616.838L686.769 678.58L592.996 631.244L648.275 711.544L576.173 641.71L599.769 732.707L556.397 647.212L546 740L535.603 647.212L492.231 732.707L515.827 641.71L443.725 711.544L499.004 631.244L405.231 678.58L486.782 616.838L380.516 637.044L480.356 599.903L372 591L480.356 582.097L380.516 544.956L486.782 565.162L405.231 503.42L499.004 550.756L443.725 470.456L515.827 540.29L492.231 449.293L535.603 534.788L546 442Z" fill="#E5E5E5"/>
<path d="M546 442L556.397 534.788L599.769 449.293L576.173 540.29L648.275 470.456L592.996 550.756L686.769 503.42L605.218 565.162L711.484 544.956L611.644 582.097L720 591L611.644 599.903L711.484 637.044L605.218 616.838L686.769 678.58L592.996 631.244L648.275 711.544L576.173 641.71L599.769 732.707L556.397 647.212L546 740L535.603 647.212L492.231 732.707L515.827 641.71L443.725 711.544L499.004 631.244L405.231 678.58L486.782 616.838L380.516 637.044L480.356 599.903L372 591L480.356 582.097L380.516 544.956L486.782 565.162L405.231 503.42L499.004 550.756L443.725 470.456L515.827 540.29L492.231 449.293L535.603 534.788L546 442Z" fill="#E5E5E5"/>
<path d="M546 442L556.397 534.788L599.769 449.293L576.173 540.29L648.275 470.456L592.996 550.756L686.769 503.42L605.218 565.162L711.484 544.956L611.644 582.097L720 591L611.644 599.903L711.484 637.044L605.218 616.838L686.769 678.58L592.996 631.244L648.275 711.544L576.173 641.71L599.769 732.707L556.397 647.212L546 740L535.603 647.212L492.231 732.707L515.827 641.71L443.725 711.544L499.004 631.244L405.231 678.58L486.782 616.838L380.516 637.044L480.356 599.903L372 591L480.356 582.097L380.516 544.956L486.782 565.162L405.231 503.42L499.004 550.756L443.725 470.456L515.827 540.29L492.231 449.293L535.603 534.788L546 442Z" fill="#E5E5E5"/>
<path d="M546 442L556.397 534.788L599.769 449.293L576.173 540.29L648.275 470.456L592.996 550.756L686.769 503.42L605.218 565.162L711.484 544.956L611.644 582.097L720 591L611.644 599.903L711.484 637.044L605.218 616.838L686.769 678.58L592.996 631.244L648.275 711.544L576.173 641.71L599.769 732.707L556.397 647.212L546 740L535.603 647.212L492.231 732.707L515.827 641.71L443.725 711.544L499.004 631.244L405.231 678.58L486.782 616.838L380.516 637.044L480.356 599.903L372 591L480.356 582.097L380.516 544.956L486.782 565.162L405.231 503.42L499.004 550.756L443.725 470.456L515.827 540.29L492.231 449.293L535.603 534.788L546 442Z" fill="#E5E5E5"/>
<path d="M546 442L556.397 534.788L599.769 449.293L576.173 540.29L648.275 470.456L592.996 550.756L686.769 503.42L605.218 565.162L711.484 544.956L611.644 582.097L720 591L611.644 599.903L711.484 637.044L605.218 616.838L686.769 678.58L592.996 631.244L648.275 711.544L576.173 641.71L599.769 732.707L556.397 647.212L546 740L535.603 647.212L492.231 732.707L515.827 641.71L443.725 711.544L499.004 631.244L405.231 678.58L486.782 616.838L380.516 637.044L480.356 599.903L372 591L480.356 582.097L380.516 544.956L486.782 565.162L405.231 503.42L499.004 550.756L443.725 470.456L515.827 540.29L492.231 449.293L535.603 534.788L546 442Z" fill="#F6F6F6"/>
<path d="M873 293L883.397 385.788L926.769 300.293L903.173 391.29L975.275 321.456L919.996 401.756L1013.77 354.42L932.218 416.162L1038.48 395.956L938.644 433.097L1047 442L938.644 450.903L1038.48 488.044L932.218 467.838L1013.77 529.58L919.996 482.244L975.275 562.544L903.173 492.71L926.769 583.707L883.397 498.212L873 591L862.603 498.212L819.231 583.707L842.827 492.71L770.725 562.544L826.004 482.244L732.231 529.58L813.782 467.838L707.516 488.044L807.356 450.903L699 442L807.356 433.097L707.516 395.956L813.782 416.162L732.231 354.42L826.004 401.756L770.725 321.456L842.827 391.29L819.231 300.293L862.603 385.788L873 293Z" fill="#E5E5E5"/>
<path d="M873 293L883.397 385.788L926.769 300.293L903.173 391.29L975.275 321.456L919.996 401.756L1013.77 354.42L932.218 416.162L1038.48 395.956L938.644 433.097L1047 442L938.644 450.903L1038.48 488.044L932.218 467.838L1013.77 529.58L919.996 482.244L975.275 562.544L903.173 492.71L926.769 583.707L883.397 498.212L873 591L862.603 498.212L819.231 583.707L842.827 492.71L770.725 562.544L826.004 482.244L732.231 529.58L813.782 467.838L707.516 488.044L807.356 450.903L699 442L807.356 433.097L707.516 395.956L813.782 416.162L732.231 354.42L826.004 401.756L770.725 321.456L842.827 391.29L819.231 300.293L862.603 385.788L873 293Z" fill="#E5E5E5"/>
<path d="M873 293L883.397 385.788L926.769 300.293L903.173 391.29L975.275 321.456L919.996 401.756L1013.77 354.42L932.218 416.162L1038.48 395.956L938.644 433.097L1047 442L938.644 450.903L1038.48 488.044L932.218 467.838L1013.77 529.58L919.996 482.244L975.275 562.544L903.173 492.71L926.769 583.707L883.397 498.212L873 591L862.603 498.212L819.231 583.707L842.827 492.71L770.725 562.544L826.004 482.244L732.231 529.58L813.782 467.838L707.516 488.044L807.356 450.903L699 442L807.356 433.097L707.516 395.956L813.782 416.162L732.231 354.42L826.004 401.756L770.725 321.456L842.827 391.29L819.231 300.293L862.603 385.788L873 293Z" fill="#E5E5E5"/>
<path d="M873 293L883.397 385.788L926.769 300.293L903.173 391.29L975.275 321.456L919.996 401.756L1013.77 354.42L932.218 416.162L1038.48 395.956L938.644 433.097L1047 442L938.644 450.903L1038.48 488.044L932.218 467.838L1013.77 529.58L919.996 482.244L975.275 562.544L903.173 492.71L926.769 583.707L883.397 498.212L873 591L862.603 498.212L819.231 583.707L842.827 492.71L770.725 562.544L826.004 482.244L732.231 529.58L813.782 467.838L707.516 488.044L807.356 450.903L699 442L807.356 433.097L707.516 395.956L813.782 416.162L732.231 354.42L826.004 401.756L770.725 321.456L842.827 391.29L819.231 300.293L862.603 385.788L873 293Z" fill="#E5E5E5"/>
<path d="M873 293L883.397 385.788L926.769 300.293L903.173 391.29L975.275 321.456L919.996 401.756L1013.77 354.42L932.218 416.162L1038.48 395.956L938.644 433.097L1047 442L938.644 450.903L1038.48 488.044L932.218 467.838L1013.77 529.58L919.996 482.244L975.275 562.544L903.173 492.71L926.769 583.707L883.397 498.212L873 591L862.603 498.212L819.231 583.707L842.827 492.71L770.725 562.544L826.004 482.244L732.231 529.58L813.782 467.838L707.516 488.044L807.356 450.903L699 442L807.356 433.097L707.516 395.956L813.782 416.162L732.231 354.42L826.004 401.756L770.725 321.456L842.827 391.29L819.231 300.293L862.603 385.788L873 293Z" fill="#F5F5F5"/>
<path d="M1202 92L1212.4 184.788L1255.77 99.2926L1232.17 190.29L1304.27 120.456L1249 200.756L1342.77 153.42L1261.22 215.162L1367.48 194.956L1267.64 232.097L1376 241L1267.64 249.903L1367.48 287.044L1261.22 266.838L1342.77 328.58L1249 281.244L1304.27 361.544L1232.17 291.71L1255.77 382.707L1212.4 297.212L1202 390L1191.6 297.212L1148.23 382.707L1171.83 291.71L1099.73 361.544L1155 281.244L1061.23 328.58L1142.78 266.838L1036.52 287.044L1136.36 249.903L1028 241L1136.36 232.097L1036.52 194.956L1142.78 215.162L1061.23 153.42L1155 200.756L1099.73 120.456L1171.83 190.29L1148.23 99.2926L1191.6 184.788L1202 92Z" fill="#F9F9F9"/>
<path d="M1304 413L1314.4 505.788L1357.77 420.293L1334.17 511.29L1406.27 441.456L1351 521.756L1444.77 474.42L1363.22 536.162L1469.48 515.956L1369.64 553.097L1478 562L1369.64 570.903L1469.48 608.044L1363.22 587.838L1444.77 649.58L1351 602.244L1406.27 682.544L1334.17 612.71L1357.77 703.707L1314.4 618.212L1304 711L1293.6 618.212L1250.23 703.707L1273.83 612.71L1201.73 682.544L1257 602.244L1163.23 649.58L1244.78 587.838L1138.52 608.044L1238.36 570.903L1130 562L1238.36 553.097L1138.52 515.956L1244.78 536.162L1163.23 474.42L1257 521.756L1201.73 441.456L1273.83 511.29L1250.23 420.293L1293.6 505.788L1304 413Z" fill="#F8F8F8"/>
<path d="M150 323L160.397 415.788L203.769 330.293L180.173 421.29L252.275 351.456L196.996 431.756L290.769 384.42L209.218 446.162L315.484 425.956L215.644 463.097L324 472L215.644 480.903L315.484 518.044L209.218 497.838L290.769 559.58L196.996 512.244L252.275 592.544L180.173 522.71L203.769 613.707L160.397 528.212L150 621L139.603 528.212L96.231 613.707L119.827 522.71L47.7254 592.544L103.004 512.244L9.23105 559.58L90.7818 497.838L-15.4838 518.044L84.3562 480.903L-24 472L84.3562 463.097L-15.4838 425.956L90.7818 446.162L9.23105 384.42L103.004 431.756L47.7254 351.456L119.827 421.29L96.231 330.293L139.603 415.788L150 323Z" fill="#F7F7F7"/>
<rect y="-11" width="1440" height="1024" fill="#F2F2F2" fill-opacity="0.5"/>
<g filter="url(#filter16_d)">
<path d="M-192 1010.86L1246.48 942.309L864.804 476.01L-192 1010.86Z" fill="#E5E5E5" fill-opacity="0.21"/>
<path d="M864.671 476.638L1245.47 941.857L-189.686 1010.25L864.671 476.638Z" stroke="#F9F9F9"/>
</g>
</g>
<defs>
<filter id="filter0_i" x="-95" y="533" width="347.478" height="441.698" filterUnits="userSpaceOnUse" color-interpolation-filters="sRGB">
<feFlood flood-opacity="0" result="BackgroundImageFix"/>
<feBlend mode="normal" in="SourceGraphic" in2="BackgroundImageFix" result="shape"/>
<feColorMatrix in="SourceAlpha" type="matrix" values="0 0 0 0 0 0 0 0 0 0 0 0 0 0 0 0 0 0 127 0" result="hardAlpha"/>
<feOffset dy="4"/>
<feGaussianBlur stdDeviation="2"/>
<feComposite in2="hardAlpha" operator="arithmetic" k2="-1" k3="1"/>
<feColorMatrix type="matrix" values="0 0 0 0 0 0 0 0 0 0 0 0 0 0 0 0 0 0 0.25 0"/>
<feBlend mode="normal" in2="shape" result="effect1_innerShadow"/>
</filter>
<filter id="filter1_i" x="-85" y="353" width="450.418" height="591.264" filterUnits="userSpaceOnUse" color-interpolation-filters="sRGB">
<feFlood flood-opacity="0" result="BackgroundImageFix"/>
<feBlend mode="normal" in="SourceGraphic" in2="BackgroundImageFix" result="shape"/>
<feColorMatrix in="SourceAlpha" type="matrix" values="0 0 0 0 0 0 0 0 0 0 0 0 0 0 0 0 0 0 127 0" result="hardAlpha"/>
<feOffset dy="4"/>
<feGaussianBlur stdDeviation="2"/>
<feComposite in2="hardAlpha" operator="arithmetic" k2="-1" k3="1"/>
<feColorMatrix type="matrix" values="0 0 0 0 0 0 0 0 0 0 0 0 0 0 0 0 0 0 0.25 0"/>
<feBlend mode="normal" in2="shape" result="effect1_innerShadow"/>
</filter>
<filter id="filter2_i" x="-95" y="149" width="556.972" height="746.081" filterUnits="userSpaceOnUse" color-interpolation-filters="sRGB">
<feFlood flood-opacity="0" result="BackgroundImageFix"/>
<feBlend mode="normal" in="SourceGraphic" in2="BackgroundImageFix" result="shape"/>
<feColorMatrix in="SourceAlpha" type="matrix" values="0 0 0 0 0 0 0 0 0 0 0 0 0 0 0 0 0 0 127 0" result="hardAlpha"/>
<feOffset dy="4"/>
<feGaussianBlur stdDeviation="2"/>
<feComposite in2="hardAlpha" operator="arithmetic" k2="-1" k3="1"/>
<feColorMatrix type="matrix" values="0 0 0 0 0 0 0 0 0 0 0 0 0 0 0 0 0 0 0.25 0"/>
<feBlend mode="normal" in2="shape" result="effect1_innerShadow"/>
</filter>
<filter id="filter3_i" x="-85" y="-25" width="648.948" height="879.719" filterUnits="userSpaceOnUse" color-interpolation-filters="sRGB">
<feFlood flood-opacity="0" result="BackgroundImageFix"/>
<feBlend mode="normal" in="SourceGraphic" in2="BackgroundImageFix" result="shape"/>
<feColorMatrix in="SourceAlpha" type="matrix" values="0 0 0 0 0 0 0 0 0 0 0 0 0 0 0 0 0 0 127 0" result="hardAlpha"/>
<feOffset dy="4"/>
<feGaussianBlur stdDeviation="2"/>
<feComposite in2="hardAlpha" operator="arithmetic" k2="-1" k3="1"/>
<feColorMatrix type="matrix" values="0 0 0 0 0 0 0 0 0 0 0 0 0 0 0 0 0 0 0.25 0"/>
<feBlend mode="normal" in2="shape" result="effect1_innerShadow"/>
</filter>
<filter id="filter4_i" x="324" y="63" width="648.948" height="879.719" filterUnits="userSpaceOnUse" color-interpolation-filters="sRGB">
<feFlood flood-opacity="0" result="BackgroundImageFix"/>
<feBlend mode="normal" in="SourceGraphic" in2="BackgroundImageFix" result="shape"/>
<feColorMatrix in="SourceAlpha" type="matrix" values="0 0 0 0 0 0 0 0 0 0 0 0 0 0 0 0 0 0 127 0" result="hardAlpha"/>
<feOffset dy="4"/>
<feGaussianBlur stdDeviation="2"/>
<feComposite in2="hardAlpha" operator="arithmetic" k2="-1" k3="1"/>
<feColorMatrix type="matrix" values="0 0 0 0 0 0 0 0 0 0 0 0 0 0 0 0 0 0 0.25 0"/>
<feBlend mode="normal" in2="shape" result="effect1_innerShadow"/>
</filter>
<filter id="filter5_i" x="236" y="-130" width="648.948" height="879.719" filterUnits="userSpaceOnUse" color-interpolation-filters="sRGB">
<feFlood flood-opacity="0" result="BackgroundImageFix"/>
<feBlend mode="normal" in="SourceGraphic" in2="BackgroundImageFix" result="shape"/>
<feColorMatrix in="SourceAlpha" type="matrix" values="0 0 0 0 0 0 0 0 0 0 0 0 0 0 0 0 0 0 127 0" result="hardAlpha"/>
<feOffset dy="4"/>
<feGaussianBlur stdDeviation="2"/>
<feComposite in2="hardAlpha" operator="arithmetic" k2="-1" k3="1"/>
<feColorMatrix type="matrix" values="0 0 0 0 0 0 0 0 0 0 0 0 0 0 0 0 0 0 0.25 0"/>
<feBlend mode="normal" in2="shape" result="effect1_innerShadow"/>
</filter>
<filter id="filter6_i" x="343" y="-165" width="648.948" height="879.719" filterUnits="userSpaceOnUse" color-interpolation-filters="sRGB">
<feFlood flood-opacity="0" result="BackgroundImageFix"/>
<feBlend mode="normal" in="SourceGraphic" in2="BackgroundImageFix" result="shape"/>
<feColorMatrix in="SourceAlpha" type="matrix" values="0 0 0 0 0 0 0 0 0 0 0 0 0 0 0 0 0 0 127 0" result="hardAlpha"/>
<feOffset dy="4"/>
<feGaussianBlur stdDeviation="2"/>
<feComposite in2="hardAlpha" operator="arithmetic" k2="-1" k3="1"/>
<feColorMatrix type="matrix" values="0 0 0 0 0 0 0 0 0 0 0 0 0 0 0 0 0 0 0.25 0"/>
<feBlend mode="normal" in2="shape" result="effect1_innerShadow"/>
</filter>
<filter id="filter7_i" x="450" y="-200" width="648.948" height="879.719" filterUnits="userSpaceOnUse" color-interpolation-filters="sRGB">
<feFlood flood-opacity="0" result="BackgroundImageFix"/>
<feBlend mode="normal" in="SourceGraphic" in2="BackgroundImageFix" result="shape"/>
<feColorMatrix in="SourceAlpha" type="matrix" values="0 0 0 0 0 0 0 0 0 0 0 0 0 0 0 0 0 0 127 0" result="hardAlpha"/>
<feOffset dy="4"/>
<feGaussianBlur stdDeviation="2"/>
<feComposite in2="hardAlpha" operator="arithmetic" k2="-1" k3="1"/>
<feColorMatrix type="matrix" values="0 0 0 0 0 0 0 0 0 0 0 0 0 0 0 0 0 0 0.25 0"/>
<feBlend mode="normal" in2="shape" result="effect1_innerShadow"/>
</filter>
<filter id="filter8_i" x="557" y="-234.999" width="920.888" height="1274.83" filterUnits="userSpaceOnUse" color-interpolation-filters="sRGB">
<feFlood flood-opacity="0" result="BackgroundImageFix"/>
<feBlend mode="normal" in="SourceGraphic" in2="BackgroundImageFix" result="shape"/>
<feColorMatrix in="SourceAlpha" type="matrix" values="0 0 0 0 0 0 0 0 0 0 0 0 0 0 0 0 0 0 127 0" result="hardAlpha"/>
<feOffset dy="4"/>
<feGaussianBlur stdDeviation="2"/>
<feComposite in2="hardAlpha" operator="arithmetic" k2="-1" k3="1"/>
<feColorMatrix type="matrix" values="0 0 0 0 0 0 0 0 0 0 0 0 0 0 0 0 0 0 0.25 0"/>
<feBlend mode="normal" in2="shape" result="effect1_innerShadow"/>
</filter>
<filter id="filter9_i" x="664" y="-269.999" width="854.78" height="1178.78" filterUnits="userSpaceOnUse" color-interpolation-filters="sRGB">
<feFlood flood-opacity="0" result="BackgroundImageFix"/>
<feBlend mode="normal" in="SourceGraphic" in2="BackgroundImageFix" result="shape"/>
<feColorMatrix in="SourceAlpha" type="matrix" values="0 0 0 0 0 0 0 0 0 0 0 0 0 0 0 0 0 0 127 0" result="hardAlpha"/>
<feOffset dy="4"/>
<feGaussianBlur stdDeviation="2"/>
<feComposite in2="hardAlpha" operator="arithmetic" k2="-1" k3="1"/>
<feColorMatrix type="matrix" values="0 0 0 0 0 0 0 0 0 0 0 0 0 0 0 0 0 0 0.25 0"/>
<feBlend mode="normal" in2="shape" result="effect1_innerShadow"/>
</filter>
<filter id="filter10_i" x="771" y="-304.999" width="766.799" height="1050.95" filterUnits="userSpaceOnUse" color-interpolation-filters="sRGB">
<feFlood flood-opacity="0" result="BackgroundImageFix"/>
<feBlend mode="normal" in="SourceGraphic" in2="BackgroundImageFix" result="shape"/>
<feColorMatrix in="SourceAlpha" type="matrix" values="0 0 0 0 0 0 0 0 0 0 0 0 0 0 0 0 0 0 127 0" result="hardAlpha"/>
<feOffset dy="4"/>
<feGaussianBlur stdDeviation="2"/>
<feComposite in2="hardAlpha" operator="arithmetic" k2="-1" k3="1"/>
<feColorMatrix type="matrix" values="0 0 0 0 0 0 0 0 0 0 0 0 0 0 0 0 0 0 0.25 0"/>
<feBlend mode="normal" in2="shape" result="effect1_innerShadow"/>
</filter>
<filter id="filter11_i" x="878" y="-339.999" width="648.948" height="879.719" filterUnits="userSpaceOnUse" color-interpolation-filters="sRGB">
<feFlood flood-opacity="0" result="BackgroundImageFix"/>
<feBlend mode="normal" in="SourceGraphic" in2="BackgroundImageFix" result="shape"/>
<feColorMatrix in="SourceAlpha" type="matrix" values="0 0 0 0 0 0 0 0 0 0 0 0 0 0 0 0 0 0 127 0" result="hardAlpha"/>
<feOffset dy="4"/>
<feGaussianBlur stdDeviation="2"/>
<feComposite in2="hardAlpha" operator="arithmetic" k2="-1" k3="1"/>
<feColorMatrix type="matrix" values="0 0 0 0 0 0 0 0 0 0 0 0 0 0 0 0 0 0 0.25 0"/>
<feBlend mode="normal" in2="shape" result="effect1_innerShadow"/>
</filter>
<filter id="filter12_i" x="985" y="-374.999" width="648.948" height="879.719" filterUnits="userSpaceOnUse" color-interpolation-filters="sRGB">
<feFlood flood-opacity="0" result="BackgroundImageFix"/>
<feBlend mode="normal" in="SourceGraphic" in2="BackgroundImageFix" result="shape"/>
<feColorMatrix in="SourceAlpha" type="matrix" values="0 0 0 0 0 0 0 0 0 0 0 0 0 0 0 0 0 0 127 0" result="hardAlpha"/>
<feOffset dy="4"/>
<feGaussianBlur stdDeviation="2"/>
<feComposite in2="hardAlpha" operator="arithmetic" k2="-1" k3="1"/>
<feColorMatrix type="matrix" values="0 0 0 0 0 0 0 0 0 0 0 0 0 0 0 0 0 0 0.25 0"/>
<feBlend mode="normal" in2="shape" result="effect1_innerShadow"/>
</filter>
<filter id="filter13_i" x="1092" y="-409.999" width="648.948" height="879.719" filterUnits="userSpaceOnUse" color-interpolation-filters="sRGB">
<feFlood flood-opacity="0" result="BackgroundImageFix"/>
<feBlend mode="normal" in="SourceGraphic" in2="BackgroundImageFix" result="shape"/>
<feColorMatrix in="SourceAlpha" type="matrix" values="0 0 0 0 0 0 0 0 0 0 0 0 0 0 0 0 0 0 127 0" result="hardAlpha"/>
<feOffset dy="4"/>
<feGaussianBlur stdDeviation="2"/>
<feComposite in2="hardAlpha" operator="arithmetic" k2="-1" k3="1"/>
<feColorMatrix type="matrix" values="0 0 0 0 0 0 0 0 0 0 0 0 0 0 0 0 0 0 0.25 0"/>
<feBlend mode="normal" in2="shape" result="effect1_innerShadow"/>
</filter>
<filter id="filter14_i" x="129" y="-94.9999" width="648.948" height="879.719" filterUnits="userSpaceOnUse" color-interpolation-filters="sRGB">
<feFlood flood-opacity="0" result="BackgroundImageFix"/>
<feBlend mode="normal" in="SourceGraphic" in2="BackgroundImageFix" result="shape"/>
<feColorMatrix in="SourceAlpha" type="matrix" values="0 0 0 0 0 0 0 0 0 0 0 0 0 0 0 0 0 0 127 0" result="hardAlpha"/>
<feOffset dy="4"/>
<feGaussianBlur stdDeviation="2"/>
<feComposite in2="hardAlpha" operator="arithmetic" k2="-1" k3="1"/>
<feColorMatrix type="matrix" values="0 0 0 0 0 0 0 0 0 0 0 0 0 0 0 0 0 0 0.25 0"/>
<feBlend mode="normal" in2="shape" result="effect1_innerShadow"/>
</filter>
<filter id="filter15_i" x="31" y="-48" width="648.948" height="879.719" filterUnits="userSpaceOnUse" color-interpolation-filters="sRGB">
<feFlood flood-opacity="0" result="BackgroundImageFix"/>
<feBlend mode="normal" in="SourceGraphic" in2="BackgroundImageFix" result="shape"/>
<feColorMatrix in="SourceAlpha" type="matrix" values="0 0 0 0 0 0 0 0 0 0 0 0 0 0 0 0 0 0 127 0" result="hardAlpha"/>
<feOffset dy="4"/>
<feGaussianBlur stdDeviation="2"/>
<feComposite in2="hardAlpha" operator="arithmetic" k2="-1" k3="1"/>
<feColorMatrix type="matrix" values="0 0 0 0 0 0 0 0 0 0 0 0 0 0 0 0 0 0 0.25 0"/>
<feBlend mode="normal" in2="shape" result="effect1_innerShadow"/>
</filter>
<filter id="filter16_d" x="-196" y="389" width="1483.79" height="753.221" filterUnits="userSpaceOnUse" color-interpolation-filters="sRGB">
<feFlood flood-opacity="0" result="BackgroundImageFix"/>
<feColorMatrix in="SourceAlpha" type="matrix" values="0 0 0 0 0 0 0 0 0 0 0 0 0 0 0 0 0 0 127 0"/>
<feOffset dy="4"/>
<feGaussianBlur stdDeviation="2"/>
<feColorMatrix type="matrix" values="0 0 0 0 0.94902 0 0 0 0 0.94902 0 0 0 0 0.94902 0 0 0 1 0"/>
<feBlend mode="normal" in2="BackgroundImageFix" result="effect1_dropShadow"/>
<feBlend mode="normal" in="SourceGraphic" in2="effect1_dropShadow" result="shape"/>
</filter>
<clipPath id="clip0">
<rect width="1440" height="1024" fill="white"/>
</clipPath>
</defs>
</svg>
